<?xml version="1.0" encoding="UTF-8" standalone="no"?>
<svg
   xmlns:dc="http://purl.org/dc/elements/1.1/"
   xmlns:cc="http://creativecommons.org/ns#"
   xmlns:rdf="http://www.w3.org/1999/02/22-rdf-syntax-ns#"
   xmlns:svg="http://www.w3.org/2000/svg"
   xmlns="http://www.w3.org/2000/svg"
   xmlns:sodipodi="http://sodipodi.sourceforge.net/DTD/sodipodi-0.dtd"
   xmlns:inkscape="http://www.inkscape.org/namespaces/inkscape"
   inkscape:version="1.0 (4035a4fb49, 2020-05-01)"
   sodipodi:docname="next.svg"
   xml:space="preserve"
   width="256px"
   viewBox="0 0 256 256"
   version="1.1"
   id="Layer_1"
   height="256px"
   enable-background="new 0 0 256 256"><metadata
     id="metadata9"><rdf:RDF><cc:Work
         rdf:about=""><dc:format>image/svg+xml</dc:format><dc:type
           rdf:resource="http://purl.org/dc/dcmitype/StillImage" /></cc:Work></rdf:RDF></metadata><defs
     id="defs7" /><sodipodi:namedview
     inkscape:current-layer="Layer_1"
     inkscape:window-maximized="1"
     inkscape:window-y="-8"
     inkscape:window-x="-8"
     inkscape:cy="128"
     inkscape:cx="128"
     inkscape:zoom="2.2578125"
     showgrid="false"
     id="namedview5"
     inkscape:window-height="745"
     inkscape:window-width="1366"
     inkscape:pageshadow="2"
     inkscape:pageopacity="0"
     guidetolerance="10"
     gridtolerance="10"
     objecttolerance="10"
     borderopacity="1"
     bordercolor="#666666"
     pagecolor="#ffffff" /><path
     inkscape:export-ydpi="24"
     inkscape:export-xdpi="24"
     style="fill:#c2c2c2;fill-opacity:0.78431374"
     id="path2"
     d="M106.027,191.146c-1.638,0-3.277-0.625-4.525-1.875c-2.5-2.498-2.5-6.551,0-9.05L153.723,128l-52.221-52.222  c-2.5-2.499-2.5-6.552,0-9.05c2.497-2.5,6.553-2.5,9.05,0l56.747,56.747c2.5,2.499,2.5,6.551,0,9.05l-56.747,56.746  C109.303,190.521,107.664,191.146,106.027,191.146z M256,128C256,57.42,198.58,0,128,0C57.42,0,0,57.42,0,128  c0,70.58,57.42,128,128,128C198.58,256,256,198.58,256,128z M243.2,128c0,63.521-51.679,115.2-115.2,115.2  c-63.522,0-115.2-51.679-115.2-115.2C12.8,64.478,64.478,12.8,128,12.8C191.521,12.8,243.2,64.478,243.2,128z" /></svg>
